<svg xmlns="http://www.w3.org/2000/svg" width="465.1" height="565.9" viewBox="0 0 123 149.7"><g stroke-width=".4"><path fill="#fddb3b" d="M72 150c-3-1-6-3-8-6-2-4-2-6 1-9l2-2-1-5v-8l-1-4-2-12-4-4-5 2-3 2-1 2c2 4 0 9-6 12-3 3-6 3-10 3l-7-1c-4-3-8-7-9-13-1-3 0-6 1-8 2-3 5-4 9-5h2v-1l4-7v-2l-5-1c-5 1-9 0-12-2-3-1-5-3-5-4l2-1h4l4-4 2-2-2-2-1-2-1-2-10 1c-6 0-11-4-10-7l6-4 6-1 10 2 1-1 2-1c1 1 6-1 9-2l9-6 1-2c1-1 0 0 0 0l-1-2v-7l-2-1-6 1-7 1c-5-2-9-8-9-15 0-5 2-10 4-13 1-2 3-4 7-5l15-2c3 1 6 8 4 10l-6 2-6 2c-1 0-1 0 0 0l3 1v5c-2 1 0 5 3 6 2 1 3 1 4-1l8-6 5-1h5l4 3h3l4-4 6-7h2V9h2l-1 3c-1 3 0 7 1 6l3-5c0-4 1-5 3-7 3-3 7-5 9-4 2 0 3 2 4 4v1l1-1c2-2 7-2 9-1l4 7v8c-1 5-4 8-9 11-3 2-3 2-8 2-8 1-11 0-14-1l-4-4-1-2-2 2c-2 2-3 2-5 2h-2v1l-1 9 1 2 1 3c0 1 2 2 10 2h11c-1 0-1 0 0 0h1l1-1 10-1c10 0 17 3 15 7-1 2-3 3-9 5-4 2-5 2-9 2l-5-1-1-1-1 3-3 6-1 1-3 1h-1l-1 2v7a229 229 0 0 1 0 17l-1-1-1 2-1 4-4 15c-2 3-2 4-1 9a225 225 0 0 1 2 18c0 3-2 6-5 8l-6 1zM35 73v-1l-1 1-1 1c2 1 2 0 2-1zm63-16h-1l1 1v-1z"/><path fill="#f7c745" d="M72 150c-3-1-6-3-8-6-2-4-2-6 1-9l2-2-1-5v-8l-1-4-2-12-4-4-5 2-3 2-1 2c2 4 0 9-6 12-3 3-6 3-10 3l-7-1c-4-3-8-7-9-13-1-3 0-6 1-8 2-3 5-4 9-5h2v-1l4-7v-2l-5-1c-5 1-9 0-12-2-3-1-5-3-5-4l2-1h4l4-4 2-2-2-2-1-2-1-2-10 1c-6 0-11-4-10-7l6-4 6-1 10 2 1-1 2-1c1 1 6-1 9-2l9-6 1-2c1-1 0 0 0 0l-1-2v-7l-2-1-6 1-7 1c-5-2-9-8-9-15 0-5 2-10 4-13 1-2 3-4 7-5l15-2c3 1 6 8 4 10l-6 2-6 2c-1 0-1 0 0 0l3 1v5c-2 1 0 5 3 6 2 1 3 1 4-1l8-6 5-1h5l4 3h3l4-4 6-7h2V9h2l-1 3c-1 3 0 7 1 6l3-5c0-4 1-5 3-7 3-3 7-5 9-4 2 0 3 2 4 4v1l1-1c2-2 7-2 9-1l4 7v8c-1 5-4 8-9 11-3 2-3 2-8 2-8 1-11 0-14-1l-4-4-1-2-2 2c-2 2-3 2-5 2h-2v1l-1 9 1 2 1 3c0 1 2 2 10 2h11c-1 0-1 0 0 0h1l2 2-1 11c0 3-2 5-3 6l-1 1-3 1h-1l-1 2v7a229 229 0 0 1 0 17l-1-1h-1l-2-1c-4-1-6-2-7-1l-8-1h-4l-2 1-1 1-1 1v1c-2 0-3 1-3 2l-2 1h-3l-2-1-2-4a42 42 0 0 0 0-4h-2l-2 1-1 1c0 1 0 0 0 0l-2 1h-1l-1 1-2 1h-2l-1 1h-2v1h1l5 1c3 0 6 3 9 6l1 1 1-1 6-3 4-2h8l3 2v6l-1 2v2h-1c1 1 0 3-1 4l-1 3 1 2 1 5 1 5-1 2 1 1-1 4v4h1v2l1 2 1 2v1l2 2 3-1 4-5h1c0 2-2 5-5 7l-6 1zm-28-34c5-4 6-8 4-12-1-3-7-7-7-6l-3-1c-3-1-7-2-9-1h-2c2 1 2 2 1 6v3l1 1 1 1 1 1 3 2v1l1 1h1l1 1 1 1 1 1h1v1h4zm-9-43v-1l-1 1-1 1c2 1 2 0 2-1zM21 61v-4l1-2H8l-2 1c0 2 1 4 3 4l2 2h4l3 1h2l1-2zm77-4h-1l1 1v-1zm-33-6c3-1 5-4 6-6v-4l-1-5c-1-3-3-4-6-4h-2v1l-2 4-1 1h1v3l-1 1-2 1h-2v3l1 1 1 1 1 1h3c2 0 6-4 6-6s-2-4-4-4-1-1 1-1c3 0 5 3 4 5 0 3-5 7-7 7l-1 1 2 1 3-1zm8-20-5-8c-2-3-4-4-6-4-3 0-6 1-7 3l-1 2h-1l-1 2-2 6c0 3 1 3 2 1 2-3 5-3 8-3l3 1c5-1 8 1 10 6v1-7zm-11-2s1-2 2-1c1 0 1 2-1 2l-1-1zm20 110a600 600 0 0 1-2-25l2-5 4-14h1l-5 19c-2 3-2 4-1 9a225 225 0 0 1 1 16zm19-81c-2 0-2-1 2-1l13-2 3-1c6-4 1-8-11-8h-9c1-1 11-2 15-1 7 1 10 4 9 7-1 2-3 3-9 5a27 27 0 0 1-13 1z"/><path fill="#f1b64d" d="M72 150c-3-1-6-3-8-6-2-4-2-6 1-9l2-2-1-5v-8l-1-4-2-12-4-4-5 2-3 2-1 2c2 4 0 9-6 12-3 3-6 3-10 3l-7-1c-4-3-8-7-9-13-1-3 0-6 1-8 2-3 5-4 9-5h2v-1l4-7v-2l-5-1c-5 1-9 0-12-2-3-1-5-3-5-4l2-1h4l6-6c-2 0-2-1-3-4v-8l1-3H7l-1 2 2 4 2 1 2 1h2s0 1 0 0h3l2 1c1 1-5 1-9 1-6 0-11-4-10-7l6-4 6-1 10 2 1-1 2-1c1 1 6-1 9-2l9-6 1-2c1-1 0 0 0 0l-1-2v-7l-2-1-6 1-7 1c-5-2-9-8-9-15 0-5 2-10 4-13 1-2 3-4 7-5l15-2c3 1 6 8 4 10l-6 2-7 2h1l3 1v5c-2 1 0 5 3 6 2 1 3 1 4-1l8-6 5-1h5l4 3h3l4-4 6-7h2V9h2l-1 3c-1 3 0 7 1 6l3-5c0-4 1-5 3-7 3-3 7-5 9-4 2 0 3 2 4 4v1l1-1c2-2 7-2 9-1l4 7v8c-1 5-4 8-9 11-3 2-3 2-8 2-8 1-11 0-14-1l-4-4-1-2-2 2c-2 2-3 2-5 2h-2v1l-1 9 1 2 1 3c0 1 2 2 10 2h11c-1 0-1 0 0 0h1l1 1 1 11c-1 3-2 6-4 7l-1 1-3 1h-1l-1 2v7a229 229 0 0 1 0 17l-1-1h-1l-3-1c-3-2-6-2-7-2H66l-3 1-2 2-2 2-3 1c-2 1-5-1-5-4v-3l-1-2h-1l-2 1-1 1h-1l-4 2h-1l-3 1-5 2h-1l9 2c3 1 5 2 7 5l3 2 1-1c2-2 5-3 8-3l4-1 3 1 1 1a1130 1130 0 0 1 4 2l-1 1v7l-2 2h-1v-1l-1 1 1 3v3l1 1v1l1 1v2h-1l1 4 1 3-1 4-1 2c0 1 0 0 0 0h-1l-1-1v1l1 1c2-1 2 0 2 1l1 2v1l1 2 2 3v1l1 1h2c2 0 5-2 6-5l1-1c0 2-2 5-5 7l-6 1zm-33-32c2 0 6-2 7-4l3-3c1-2 1-4-1-7-1-3-7-8-8-6a21 21 0 0 0-14-2l-1 1 1 1 1 2 1 5v2l1 1 1 1 1 1v2l-1 1-1-1-1 1v1l1 1v1h1c-1 1 0 2 1 3l8-1zm26-17v1s0 1 0 0v-1zM35 73v-1l-1 1-1 1c2 1 2 0 2-1zm63-16h-1l1 1v-1zm-33-6c3-1 5-3 6-5v-5l-1-5c-1-3-3-4-6-4h-2v1c0 3-3 6-7 6l-2 1h-1l1 2 1 3 1 2 1 2h1l1 1v1h-1v1h3l5-1zm-6-1 1-1 6-3c1-3 1-4-1-6l-2-1-1-1 5 1c1 1 2 3 1 5l-5 5c-1 1-3 2-4 1zm14-17c-1-6-5-12-9-13-4-2-11 0-11 3v1l-1 1-1 1-1 6v3l1-1c1-2 5-4 8-4l2 1h4c4 0 6 1 8 6v2-6zm-10-4 1-1v1l-1 1v-1zm20 111-3-18v-9l3-7 4-11-6 20-1 3 1 3a218 218 0 0 1 2 19zm18-82h-1c-1-1 0-1 2-1 2 1 12-1 15-2 7-2 6-7-2-8l-14-1h-2c1-1 11-2 15-1 7 1 10 4 9 7-1 2-3 3-9 5a27 27 0 0 1-13 1z"/><path fill="#0af28d" d="M72 149c-3-1-5-2-7-5-3-4-3-6 0-9l2-2-1-8-1-10-2-10-2-4c-2-1-4-1-7 1l-3 2-1 1 1 3c0 4-2 7-7 10-3 2-5 3-9 3-6 1-12-3-15-9l-2-8c0-5 4-9 10-10h3-1v-1c1-1 2-2 3-7l1-2-5-1c-5 1-8 0-12-2-3-1-5-3-5-4l2-1c2 1 4 0 8-3l2-3-3-4v-8l1-3h-2l-4-1c-4 0-7 0-11 2-3 2-4 3-2 5 3 2 7 4 11 3l2 1h-5l-6-1c-3-1-5-4-5-5 0-2 2-3 5-5 4-1 6-2 9-1l8 2 1-1 1-1c1 1 2 1 6-1l10-4 3-3 1-2-1-1v-8l-1-1-7 1h-7c-4-1-6-4-8-8v-7c0-5 1-9 3-12l4-4 6-2 12-1c2 1 5 5 5 8l-1 2c-2 1-3 2-7 2l-6 2h1c2 0 3 1 3 3v3l-1 1v2c2 2 4 4 6 4l2-2c2-3 6-6 10-7h5c3 0 5 1 7 3l1 1 1-1c1 1 2 0 5-4s7-8 8-7V9h2l-1 3v6c1 1 2 0 2-1l2-4c0-4 1-5 3-8 4-3 8-4 10-3l3 4h1c2-2 5-2 8-1l4 5 1 7-1 6c-1 3-4 6-8 8-3 2-3 2-8 2-8 1-11 0-14-1-2-1-4-2-4-4l-1-2s-1 0 0 0l-4 3-5 1v5l-1-2c-1-6-3-10-6-12-4-2-7-3-12 0-3 1-7 5-9 8l-2 9 1 4 1-2 4-4 2-2 3-3c2-1 5-1 6 1 2 1 1 4-2 6l-4 1-3-1-1-1h-1l-2 6 1 4c2 3 6 5 11 5l4-1c3-1 5-3 6-5l1-5-1-5c-1-3-3-5-7-5h-1 7c2 2 4 5 4 9l1 3 1 1c0 3 2 3 10 3h12l1 1 1 5c0 5-1 10-4 13l-1 2-3-1c-2 0-2 0-1 1l-1 2v8l1 9v5c1 1-1 3-2 1a75 75 0 0 0-18-5h-1l-1 1-8 4-4 2-1-5-1-3h-2c-5 0-14 3-19 6-2 1-2 2-1 2h3l5 1 8 5 2 2 1-1c3-2 5-3 8-3l3 1 1 1v-1l1-2 1 1v7a147 147 0 0 1 2 12l1 9-1 8-3 4c0 2 4 7 6 8s4 2 6 1c2 0 4-2 6-4 1-3 1-3 1 0l-5 5h-6zm-31-31 7-6 1-4-1-4c-1-3-4-5-6-6l-2-1h-3l-6-1-6 1-5 4c-1 3 1 9 4 12 1 3 3 4 5 5l6 1 6-1zm-6-45v-1l-1 1-1 1c1 1 2 1 2-1zm62-13v1-1zm1-3h-1l1 1v-1zm-15 82-1-5a24904 24904 0 0 0-2-21l2-5 4-12 1 1-5 17c-2 3-2 5-1 9l2 16zm18-81c-2 0-1-1 1-1 3 1 10 0 13-1 6-2 8-5 6-7-3-2-10-4-17-3l-5 1v-1c2-1 11-2 16-1 7 2 10 5 7 8l-8 4a28 28 0 0 1-13 1zm-42-8 2-1 4-3 2-3-2-3-2-1 1-1 3 2c2 2 1 4-1 7s-6 4-7 3zM48 35v-2l2 1-1 1h-1zm14-6 1-1 1 1-1 1-1-1z"/><path fill="#eb710b" d="M72 149c-3-1-5-2-7-5-3-4-3-6 0-9l2-2-1-8-1-10-2-10-2-4c-2-1-4-1-7 1l-3 2-1 1 1 3c0 4-2 7-7 10-3 2-5 3-9 3-6 1-12-3-15-9l-2-8c0-5 4-9 10-10h3-1v-1c1-1 2-2 3-7l1-2-5-1c-5 1-8 0-12-2-3-1-5-3-5-4l2-1h4l8-7h-1l-2 1-2-4v-8l1-3h-2l-4-1c-4 0-7 0-11 2-3 2-4 3-2 5 3 2 7 4 11 3l2 1h-5l-6-1c-3-1-5-4-5-5 0-2 2-3 5-5 4-1 6-2 9-1l8 2 1-1 1-1c1 1 2 1 6-1l10-4 3-3 1-2-1-1v-8l-1-1-7 1h-7c-4-1-6-4-8-8v-7c0-5 1-9 3-12l4-4 6-2 12-1c2 1 5 5 5 8l-1 2c-2 1-3 2-7 2l-6 2h1c2 0 3 1 3 3v3l-1 1v2c2 2 4 4 6 4l2-2c2-3 6-6 10-7h5c3 0 5 1 7 3l1 1 1-1c1 1 2 0 5-4s7-8 8-7V9h2l-1 3v6c1 1 2 0 2-1l2-4c0-4 1-5 3-8 4-3 8-4 10-3l3 4h1c2-2 5-2 8-1l4 5 1 7-1 6c-1 3-4 6-8 8-3 2-3 2-8 2-8 1-11 0-14-1-2-1-4-2-4-4l-1-2s-1 0 0 0l-4 3-5 1v5l-1-2c-1-6-3-10-6-12-4-2-7-3-12 0-3 1-7 5-9 8l-2 9 1 4 1-2 4-4 2-2 3-3c2-1 5-1 6 1 2 1 1 4-2 6l-4 1-3-1-1-1h-1l-2 6 1 4c2 3 6 5 11 5l4-1c3-1 5-3 6-5l1-5-1-5c-1-3-3-5-7-5h-1 7c2 2 4 5 4 9l1 3 1 1c0 2 1 2 3 3a58 58 0 0 0 17 0 36 36 0 0 1-19 1l-1 2-4 8-1 2c1-1 1 0 1 1l1 3c1 0 1 0 0 0v2h1v-5l1-1h8l1 1 3 1s0-1 0 0l1-1v-1h1l1-2 1-1h6v1c1-1 1 0 1 1v2-14c1 0 2 2 2 6 0 5-1 10-4 13l-1 2-3-1c-2 0-2 0-1 1l-1 2v7l1 13-2-5-1-4c0-1 0-1 0 0l-1 1h-3c0-1-1-2-2-1l2 5v1l-1 1-2-1a23 23 0 0 0 0-2c0-1 0-1 0 0h-1v1h-1v1h-2l-1-1v-4l-1-1v-3l-1-1v-1l-1-4v-2l-1 1-1 1h-2v-5c0-1-1-2-2-1v4l2 15v4l-8 4-4 2-1-5-1-3h-2c-5 0-14 3-19 6-2 1-2 2-1 2h3l5 1 8 5 2 2 1-1c3-2 5-3 8-3l3 1 1 1v-1l1-2 1 1v7a147 147 0 0 1 2 12l1 9-1 8-3 4c0 2 4 7 6 8s4 2 6 1c2 0 4-2 6-4 1-3 1-3 1 0l-5 5h-6zm-31-31 7-6 1-4-1-4c-1-3-4-5-6-6l-2-1h-3l-6-1-6 1-5 4c-1 3 1 9 4 12 1 3 3 4 5 5l6 1 6-1zm-1-30 7-2h4v-2l-1-2-1 1h-6l-3 2-4 1-1 2-1 2h1l5-2zm40-5h-1l1 1v-1zm0-2v-1h-1v2l1-1zm-29-7v1-1zm-16-1v-1l-1 1-1 1c1 1 2 1 2-1zm4 0c1-1 2-2 1-3v-1l-2 1-1 2-1 1v1h1l2-1zm-3-3 5-4c0-2 1-2 3-2l1 1 1 1h1v-1l2-2v-1h-2l-1-1h-2l-2-1-2-2-1 1v1l-1 2h-4v-2h-4l-1 1-1 2v6l1 2c2 2 1 2 7-1zm37-2h-1 1zm-5-3v-4h-1v3l1 1zm26-7-1-1v1h1zm-59 0c0-1 0-1 0 0-1 0-1 0 0 0zm48 81-1-5a24904 24904 0 0 0-2-21l2-5 4-12 1 1-5 17c-2 3-2 5-1 9l2 16zm1-47-13-4-1-1c1-1 9 1 14 4 4 2 4 3 0 1zm17-34c-2 0-1-1 1-1 3 1 10 0 13-1 6-2 8-5 6-7-3-2-10-4-17-3l-5 1v-1c2-1 11-2 16-1 7 2 10 5 7 8l-8 4a28 28 0 0 1-13 1zm-42-8 2-1 4-3 2-3-2-3-2-1 1-1 3 2c2 2 1 4-1 7s-6 4-7 3zM48 35v-2l2 1-1 1h-1zm14-6 1-1 1 1-1 1-1-1z"/><path fill="#0cde6c" d="M72 149c-3-1-5-2-7-5-3-4-3-6 0-9l2-2-1-8-1-10-2-10-2-4c-2-1-4-1-7 1l-3 2-1 1 1 3c0 4-2 7-7 10-3 2-5 3-9 3-6 1-12-3-15-9l-2-8c0-5 4-9 10-10h3-1v-1c1-1 2-2 3-7l1-2-5-1c-5 1-8 0-12-2-3-1-5-3-5-4l2-1h4l8-7h-1l-2 1-2-4v-8l1-3h-2l-4-1c-4 0-7 0-11 2-3 2-4 3-2 5 3 2 7 4 11 3l2 1h-5l-6-1c-3-1-5-4-5-5 0-2 2-3 5-5 4-1 6-2 9-1l8 2 1-1 1-1c1 1 2 1 6-1l10-4 3-3 1-2-1-1v-8l-1-1-7 1h-7c-4-1-6-4-8-8v-7c0-5 1-9 3-12l4-4 6-2 12-1c2 1 5 5 5 8l-1 2c-2 1-3 2-7 2l-6 2h1c2 0 3 1 3 2h-5v-3l2-2c2-2 4-2 6-1h3c3-1 3-2 2-4l-3-4h-6L28 4v2l-1 8v5l1 2v1c-1 0-1 0 0 0v2c1 0 1 0 0 0l1 1v2l1 2 1 1h11l1 1 1-1 1-2h-2c-2-1-6-4-6-7 0-1 2-4 3-3v2l-1 1v2c2 2 4 4 6 4l2-2c2-3 6-6 10-7h5c3 0 5 1 8 4 1 1 1 2 2 1h-1v-2c0-1 0 0 0 0 1 1 2 0 5-4l6-6h1l1-1 2-1-1 3v6c1 1 2 0 2-1l2-4c0-4 1-5 3-8 4-3 8-4 10-3l3 4h1c2-2 5-2 8-1l4 5 1 7-1 6c-1 3-4 6-8 8-3 2-3 2-8 2-8 1-11 0-14-1-2-1-4-2-4-4v-2l1 1 4 4 13 1 5-1 3-1c3-2 5-4 7-8s2-9-2-14c-2-3-3-3-8-1l-2 2-1 3V9c-1-5-3-7-8-4l-1 1h1l3-2 2 2-2 6v1l-1 1v2l-1 1v2l-1 1-1 1-1 4c1 1 0 4-1 4l-1 1h-1l-1-2-1-1v-2l-1-3 1-3v-1l-1 1c-2 2-4 1-5-2v-1l-1 1-1 4-1 1v4h3l-4 3-5 1v5l-1-3c-1-5-3-9-6-11-4-2-7-3-12 0-3 1-7 5-9 8l-2 9 1 4 1-2 4-4 1-2 4-3c2-1 5-1 6 1 2 1 1 4-2 6l-4 1-3-1-1-1h-1l-2 6 1 4c2 3 6 5 11 5l4-1c3-1 5-3 6-5l1-5-1-5c-1-3-2-4-6-4l-1-1h6c2 2 4 5 4 9l1 3 1 1c0 2 1 2 3 3a58 58 0 0 0 17 0 36 36 0 0 1-19 1l-1 2-4 8-1 2c1-1 1 0 1 1l1 3c1 0 1 0 0 0v2h1v-5l1-1h8l1 1 3 1s0-1 0 0l1-1v-1h1l1-2 1-1h6v1c1-1 1 0 1 1v2-14c1 0 2 2 2 6 0 5-1 10-4 13l-1 2-3-1c-2 0-2 0-1 1l-1 2v7l1 13-2-5-1-4c0-1 0-1 0 0l-1 1h-3c0-1-1-2-2-1l2 5v1l-1 1-2-1a23 23 0 0 0 0-2c0-1 0-1 0 0h-1v1h-1v1h-2l-1-1v-4l-1-1v-3l-1-1v-1l-1-4v-2l-1 1-1 1h-2v-5c0-1-1-2-2-1v4l2 15v4l-8 4-4 2-1-5-1-3h-2c-5 0-14 3-19 6-2 1-2 2-1 2h3l5 1 3 1 4 3 3 3 1-1c3-2 5-3 8-3l3 1 1 1v-1l1-2 1 1v7a147 147 0 0 1 2 12l1 9-1 8-3 4c0 2 4 7 6 8s4 2 6 1c2 0 4-2 6-4 1-3 1-3 1 0l-5 5h-6zm-31-31 7-6 1-4-1-4-6-6-2-1h-3l-6-1-6 1-5 4c-1 3 1 9 4 12 1 3 3 4 5 5l6 1 6-1zm-1-30 7-2h4v-2l-1-2-1 1h-6l-3 2-4 1-1 2-1 2h1l5-2zm40-5h-1l1 1v-1zm0-2v-1h-1v2l1-1zm-29-7v1-1zm-16-1v-1l-1 1-1 1c1 1 2 1 2-1zm4 0c1-1 2-2 1-3v-1l-2 1-1 2-1 1v1h1l2-1zm-3-3 5-4c0-2 1-2 3-2l1 1 1 1h1v-1l2-2v-1h-2l-1-1h-2l-2-1-2-2-1 1v1l-1 2h-4v-2h-4l-1 1-1 2v6l1 2c2 2 1 2 7-1zm37-2h-1 1zm-5-3v-4h-1v3l1 1zm26-7-1-1v1h1zm-59 0c0-1 0-1 0 0-1 0-1 0 0 0zm56-44v-3h1v-1l1-1 1-1V7l-1 1c-2 1-3 5-3 6s0 1 0 0h1zm-8 125-2-10-1-8v-8l2-5 4-12 1 1-5 17c-2 3-2 5-1 9l2 16zm1-47-13-4-1-1c1-1 9 1 14 4 4 2 4 3 0 1zm17-34c-2 0-1-1 1-1 3 1 10 0 13-1 6-2 8-5 6-7-3-2-10-4-17-3l-5 1v-1c2-1 11-2 16-1 7 2 10 5 7 8l-8 4a28 28 0 0 1-13 1zm-42-8 2-1 4-3 2-3-2-3-2-1h3c2 1 2 3 2 5-1 3-7 8-9 6zM48 35v-2l2 1-1 1h-1zm14-6 1-1 1 1-1 1-1-1zm44-6-1-2-1-1c-1 0-1 0 0 0v-6l1-2c1-3 2-6 4-5l1 1h1v9l-1 2v2l-1 2-1 1c-1 1-1 1-2-1z"/><path fill="#cc5513" d="M72 149c-3-1-5-2-7-5-3-4-3-6 0-9l2-2-1-8-1-10-2-10-2-4c-2-1-4-1-7 1l-3 2-1 1 1 3c0 4-2 7-7 10-3 2-5 3-9 3-6 1-12-3-15-9l-2-8c0-5 4-9 10-10h3-1v-1c1-1 2-2 3-7l1-2-5-1c-5 1-8 0-12-2-3-1-5-3-5-4l2-1h4l5-4 3-4v-1h1l1 1 1 3 2 1 5-2 5-2a780 780 0 0 1-5 6l5-2 1-1 1-2 1-1 1-1h1l3-5-1-1h-1l-1-1c-2 1-5-2-6-4l-1-2v-1l-1-1h-4l-4 2c-2 0-3 1-4 3h-2l-2 7 1 3 1 3-1-1c-2-1-3-7-2-11l1-3h-2l-4-1c-4 0-7 0-11 2-3 2-4 3-2 5 3 2 7 4 11 3l2 1h-5l-6-1c-3-1-5-4-5-5 0-2 2-3 5-5 4-1 6-2 9-1l8 2 1-1 1-1c1 1 2 1 6-1l10-4 3-3 1-2-1-1v-8l-1-1-7 1h-7c-4-1-6-4-8-8v-7c0-5 1-9 3-12l4-4 6-2 12-1c2 1 5 5 5 8l-1 2c-2 1-3 2-7 2l-6 2h1c2 0 3 1 3 2h-5v-3l2-2c2-2 4-2 6-1h3c3-1 3-2 2-4l-3-4h-6L28 4v2l-1 8v5l1 2v1c-1 0-1 0 0 0v2c1 0 1 0 0 0l1 1v2l1 2 1 1h11l1 1 1-1 1-2h-2c-2-1-6-4-6-7 0-1 2-4 3-3v2l-1 1v2c2 2 4 4 6 4l2-2c2-3 6-6 10-7h5c3 0 5 1 8 4 1 1 1 2 2 1h-1v-2c0-1 0 0 0 0 1 1 2 0 5-4l6-6h1l1-1 2-1-1 3v6c1 1 2 0 2-1l2-4c0-4 1-5 3-8 4-3 8-4 10-3l3 4h1c2-2 5-2 8-1l4 5 1 7-1 6c-1 3-4 6-8 8-3 2-3 2-8 2-8 1-11 0-14-1-2-1-4-2-4-4v-2l1 1 4 4 13 1 5-1 3-1c3-2 5-4 7-8s2-9-2-14c-2-3-3-3-8-1l-2 2-1 3V9c-1-5-3-7-8-4l-1 1h1l3-2 2 2-2 6v1l-1 1v2l-1 1v2l-1 1-1 1-1 4c1 1 0 4-1 4l-1 1h-1l-1-2-1-1v-2l-1-3 1-3v-1l-1 1c-2 2-4 1-5-2v-1l-1 1-1 4-1 1v4h3l-4 3-5 1v5l-1-3c-1-5-3-9-6-11-4-2-7-3-12 0-3 1-7 5-9 8l-2 9 1 4 1-2 4-4 1-2 4-3c2-1 5-1 6 1 2 1 1 4-2 6l-4 1-3-1-1-1h-1l-2 6 1 4c2 3 6 5 11 5l4-1c3-1 5-3 6-5l1-5-1-5c-1-3-2-4-6-4l-1-1h6c2 2 4 5 4 9l1 3 1 1c0 3 2 3 9 3h11a36 36 0 0 1-20 1v3l-2 3-5 6c-2 1-2 1-2 9 0 6 0 10 2 16v4l-8 4-4 2-1-5-1-3h-2c-5 0-14 3-19 6-2 1-2 2-1 2h3l5 1 3 1 4 3 3 3 1-1c3-2 5-3 8-3l3 1 1 1v-1l1-2 1 1v7a147 147 0 0 1 2 12l1 9-1 8-3 4c0 2 4 7 6 8s4 2 6 1c2 0 4-2 6-4 1-3 1-3 1 0l-5 5h-6zm-31-31 7-6 1-4-1-4-6-6-2-1h-3l-6-1-6 1-5 4c-1 3 1 9 4 12 1 3 3 4 5 5l6 1 6-1zm1-31 6-1 4-1-1-2v-6l1-3v-1l-2 1-2 2v1h-1l-4 4c0-1 0 0 0 0l-7 4-1 2-1 3 2-1 6-2zm-7-14v-1l-1 1-1 1h1l1-1zm12-6h-1v1l1-1zm44-53v-3h1v-1l1-1 1-1V7l-1 1c-2 1-3 5-3 6s0 1 0 0h1zm-8 125-2-10-1-8v-8l2-5 4-12 1 1-5 17c-2 3-2 5-1 9l2 16zm1-47a99 99 0 0 0-14-5c0-1 9 1 14 4l3 2-3-1zm5-3-1-4-1-5-1-3c-1-1-2-1-2-3l-1-1-4-4c-1-2 0-4 2-5 1-1 3-1 5 1l3 1h3l2 1-2 1-2-1h-1v11l1 12-1-1zm6-23 1-3 2-8-1-7v-1c2 0 2 2 2 7l-1 6c0 3-2 6-3 6zm6-8c-2 0-1-1 1-1 3 1 10 0 13-1 6-2 8-5 6-7-3-2-10-4-17-3l-5 1v-1c2-1 11-2 16-1 7 2 10 5 7 8l-8 4a28 28 0 0 1-13 1zm-42-8 2-1 4-3 2-3-2-3-2-1h3c2 1 2 3 2 5-1 3-7 8-9 6zM48 35v-2l2 1-1 1h-1zm15-6v-1l1 1-1 1v-1zm43-6-1-2-1-1c-1 0-1 0 0 0v-6l1-2c1-3 2-6 4-5l1 1h1v9l-1 2v2l-1 2-1 1c-1 1-1 1-2-1z"/><path fill="#5e5e5c" d="M72 149c-3-1-5-2-7-5s-3-4-2-6l2-3 2-3-1-8-1-8-2-11-2-4c-2-1-4-1-7 1l-3 2-1 1 1 3c0 4-2 7-7 10-3 2-5 3-9 3-6 1-12-3-15-9l-2-8c0-5 4-9 10-10h3-1v-1c1-1 2-2 3-7l1-2-5-1c-5 1-8 0-12-2-3-1-5-3-5-4l2-1h4l5-4 3-4v-1h1l1 1 1 3 2 1 5-2 5-2a780 780 0 0 1-5 6l5-2 1-1 1-2 1-1 1-1h1l3-5-1-1h-1l-1-1c-2 1-5-2-6-4l-1-2v-1l-1-1h-4l-4 2c-2 0-3 1-4 3h-2l-2 7 1 3 1 3c-1 1-3-3-3-7-1-2 0-5 1-7l-8-2c-5 0-6 1-10 3-2 1-3 2-1 4s6 3 9 3l3 1h-2c-4 1-8 0-11-3-2-2-3-4 0-6l8-3c3-1 12 1 12 2l1-1 1-1c1 1 2 1 6-1l10-4 3-3 1-2-1-1v-8l-1-1-7 1h-7c-4-1-6-4-8-8v-7c0-5 1-9 3-12l4-4 6-2 12-1c2 1 5 5 5 8l-1 2c-2 1-3 2-7 2l-6 2h1c2 0 3 1 3 2h-1l-2-1h-3c0-2 3-3 10-4 5-1 6-3 4-6-1-3-2-4-4-4-3 0-13 2-16 4-2 0-4 3-5 4-2 4-3 11-2 14 2 6 6 10 10 10h3l4-1h5l2-4h-1l-5-4c-2-2-2-4 0-5 1-2 1-1 1 1l-1 1v2c2 2 4 4 6 4l2-2c2-3 6-6 10-7 2-1 7 0 9 1s5 4 6 7l3 3 4-1 3-2h1l-1 2-3 1-5 1v4c-1-6-5-12-9-14H55c-3 2-8 6-9 10-2 4-2 9-1 11 0 1 1 1 1-1l4-4 2-2c1-2 3-4 6-4s4 2 4 4c-1 2-5 5-7 5l-4-2-1 1c-2 2-3 7-1 10 3 3 10 5 16 3l6-5V36c-2-3-4-5-8-5h2l6 2 2 7 1 3 1 1c0 3 2 3 9 3h11a36 36 0 0 1-20 1v3l-2 3-5 6c-2 1-2 1-2 9 0 6 0 9 2 16 1 4 1 4-3 5l-5 3c-4 2-5 2-5-4l-1-2h-2l-10 2c-5 1-11 4-11 5l2 1 7 2h-1l-8-1c-4 0-5 0-8 2s-4 5-2 10c2 7 9 12 15 11s11-4 12-8c2-2 2-4 0-7l-6-7a125 125 0 0 0 4 2l2 3 1 1 2-1 7-3 4 1 1 1v-1l1-2 1 1v7l1 9 1 3v7a115 115 0 0 0 0 10l-3 4c0 3 4 7 7 9 4 2 9 0 11-5 1-2 1-1 1 1l-5 5h-6zM42 87l6-1 4-1-1-2v-6l1-3v-1l-2 1-2 2v1h-1l-4 4c0-1 0 0 0 0l-7 4-1 2-1 3 2-1 6-2zm-7-14v-1l-1 1-1 1h1l1-1zm12-6h-1v1l1-1zm36 72-1-7-2-10v-9l3-7c1-7 4-13 4-9l-5 17c-2 3-2 5-1 9l2 16zm1-47-13-4c-2 0-1-1 1-1 4 0 14 4 15 6l-3-1zm5-3-1-4-1-5-1-3c-1-1-2-1-2-3l-1-1-4-4c-1-2 0-4 2-5 1-1 3-1 5 1l3 1h3l2 1-2 1-2-1h-1v11l1 12-1-1zm6-23 1-3 2-8-1-7v-1c2 0 2 2 2 7l-1 6c0 3-2 6-3 6zm6-8c-2 0-1-1 1-1 4 1 12-1 15-2l5-3c1-5-10-7-20-6h-4c2-1 12-2 16-1 8 2 11 5 8 8l-8 4a28 28 0 0 1-13 1zm-41-8v-1c2 0 4-1 5-3 2-3 2-4 0-6l-1-2 1 1 2 1v6c-2 2-6 5-7 4zM48 34v-1l2 1h-2zm43-1-6-3-1-4 1 2 2 2c2 2 5 2 9 2a480 480 0 0 1 14-2c7-4 10-11 8-17l-4-7h-8c2-2 5-2 8-1l4 5 1 7-1 6c-1 3-4 6-8 8-3 2-3 2-7 2a5672 5672 0 0 0-12 0zm-28-4 1-1v2l-1-1zm8-7v-1c0-1 0 0 0 0 1 1 2 0 5-4l5-6-6 10c-1 2-2 2-3 2l-1-1zm14-3c-2-1-2-5-1-7v-2l2-1-1 3v6c1 1 2 0 2-1l2-4c0-4 1-5 3-8 5-4 10-4 12-1l1 6-1 1V9l-2-5c-2-1-5 0-8 2-2 2-3 4-4 9-1 4-4 6-5 4z"/><path fill="#09b24b" d="M70 149c-3-2-7-7-7-10 0-1 0-2 3-4l2-2-1 2c-4 3-4 6 0 10 3 3 5 3 7 3 3 0 4 0 6-2h1l-4 3h-7zm-3-18v-13 14-1zm15 1-1-4-1-6v-9l3-7 3-8-2 8-3 8v12l1 6zm-51-11a17 17 0 0 1-13-20c1-2 3-4 6-5l5-1 7 1 4 1h-3c-2-1-7-2-10-1-2 0-4 2-6 4l-1 4c0 3 0 4 2 6 2 5 5 8 10 9 4 1 10-1 14-4 3-3 4-7 3-11l-7-6-1-1c2 0 5 2 8 5l1 1 1-1c5-4 11-4 11-1h-3l-5 1-4 2v2c2 5-1 9-6 12-4 3-9 4-13 3zm34-8-1-7v-8l1 2v6l1 9-1-2zM55 93v-6h-3a58 58 0 0 0-22 7l1-1 2-6 1-4h-3c-8 1-14-1-18-4-1-2-1-3 1-3 2 1 4 0 9-4 3-2 3-3 3-4v-1h1l1 1 1 3 2 1 5-2 5-2a780 780 0 0 1-5 6l5-2 1-1 1-2 1-1 1-1 1-1v1l-2 2h1l2-3 1-1 1-3-1-1h-1l-1-1c-2 1-5-2-6-4l-1-2v-1l-1-1v-1h-2l-6 2-2 1v-1l3-1c5-1 11-5 12-7l1-2h1l-2-1v-8l-2-1c-2-1-4 0-6 1l-7 1-3-2c-2-1-4-5-5-8v-7c0-7 3-12 7-14 3-2 11-4 16-4 3 0 4 1 5 4 2 3 2 5 0 6-1 1-2 2-5 2l-7 2h1l3 1h-6l2-2c1-1 3-2 9-2 3-1 4-2 4-4l-1-3-2-1-2-2c-3 0-13 2-16 4-2 0-4 3-5 4-2 4-3 11-2 14 2 6 6 10 10 10h3l4-1h5l2-4h-1l-5-4c-2-2-2-4-1-5s2 0 1 1l1 4 4 3 2-1c2-3 7-7 11-8 5-1 9 0 12 4l4 6v1l1 1v2l-1-2c-2-5-4-8-8-10l-5-1c-3 0-6 2-10 5-4 4-6 8-6 14l1 3c0 1 1 1 1-1l4-4 2-1 3-4h5c3 1 2 4 0 6-3 2-6 3-8 1l-1-1-1 1c-2 1-2 4-2 6 0 3 1 5 5 6 5 3 12 2 16-2l3-6-1-5c-1-4-4-6-7-6-1 0-1 0 0 0 1-1 4 0 6 1 2 2 3 6 3 9v1l1 2 1 2 10 2c6 0 5 1 0 1l-7-1h-3v3l-2 3-5 6c-2 1-2 1-2 9l2 16 1 4-4 1-5 2c-3 2-4 3-5 1zm-22-2zm9-4 6-1 4-1-1-2v-6l1-3v-1l-2 1-2 2v1h-1l-4 4c0-1 0 0 0 0l-7 4-1 2-1 3 2-1 6-2zm-7-14h-2v1h1l1-1zm51 19-3-1-11-3h-1c-2-2 2-1 8 1a34 34 0 0 1 8 4l-1-1zm3-3-1-4-1-5-1-3c-1-1-2-1-2-3l-1-1-4-4c-1-2 0-4 2-5 1-1 3-1 5 1l3 1 5 1-2 1h-3v12a164 164 0 0 0 0 9zm-4-23h-1 1zm-2 0-1-1h-1l1 1h1zm-60 3-1-2v-1l-1-2c-1-3 1-10 3-10h4l-1 1-2 2h-1l-2 5v3l1 2 1 2h-1zm73-5 1-1-2 3 1-2zM6 64c-2 0-5-3-6-4 0-2 0-3 4-5l6-2c3-1 12 1 12 2h-1l-11-1-8 4c-1 1 2 4 6 6l2 1-4-1zm8 1h1-1c-1 0-1 0 0 0zm84-9-1-7v-2c2 0 2 3 2 8-1 6-1 6-1 1zm3 2c-2 0-1-1 1-1a58 58 0 0 0 16-2c3-1 4-3 4-4l-4-4a38 38 0 0 0-19 0l-1-1 11-1c7 0 11 1 13 4 1 2 1 3-1 5l-7 3c-6 2-11 2-13 1zm-41-8v-1c2 0 6-3 7-6l-2-3v-1c3 1 4 4 2 6-2 4-6 6-7 5zm31-2 1-1c3 0 3 0 0 1h-1zM48 34v-1l2 1h-2zm42-1c-4-2-6-3-6-5s1-2 1 0l6 4h5l7-1 8-2c3-1 4-2 6-7l2-4c0-4-1-6-3-9-1-2-3-3-5-3h-5c1-1 5-2 7-1 4 1 7 9 6 14s-4 9-9 12l-6 1-14 1zm-27-3c-1-1 0-2 1-2v2h-1zm12 0-1-1h1l4-1 3-2-1 1c-1 2-5 3-6 3zm-4-7v-2h1l4-3 5-7-2 5c-3 5-5 7-7 7h-1zm14-4c-1-1-2-2-2-5l2-5v3c-1 4 0 7 2 6l2-5c1-5 3-8 7-10l4-1 3 1c2 2 2 5 2 7l-1 1v-1l-2-6c-1-1-5-1-8 2-2 2-3 4-4 9-1 4-4 6-5 4z"/><path fill="#0dac36" d="M70 149c-3-2-7-7-7-10 0-1 0-2 3-4l2-2-1 2c-4 3-4 6 0 10 3 3 5 3 7 3 3 0 4 0 6-2h1l-4 3h-7zm-3-18v-13 14-1zm15 1-1-4-1-6v-9l3-7 3-8-2 8-3 8v12l1 6zm-51-11a17 17 0 0 1-13-20c1-2 3-4 6-5l5-1 7 1 4 1h-3c-2-1-7-2-10-1-2 0-4 2-6 4l-1 4c0 3 0 4 2 6 2 5 5 8 10 9 4 1 10-1 14-4 3-3 4-7 3-11l-7-6-1-1c2 0 5 2 8 5l1 1 1-1c5-4 11-4 11-1h-3l-5 1-4 2v2c2 5-1 9-6 12-4 3-9 4-13 3zm34-8-1-7v-8l1 2v6l1 9-1-2zM55 93v-6h-3a60 60 0 0 0-22 7l1-1 2-6 1-4h-3c-8 1-14-1-18-4-1-2-1-3 1-3 2 1 4 0 9-4 3-2 3-3 3-4l1-1v1l2 3 2 1 4-1 4-2-1 1-2 2-1 2v-1h-2v1h5l3-2 2-1 1-1 1-1v-1h1l-1 1 1-1 3-6 1-2h1l-5-2-3-1h-1l-1-1-1-2c-1 0 0 0 0 0l-2-4-2 1-6 2c-2 1-2 0 1-1 5-1 11-5 12-7l1-2h1l-2-1v-8l-2-1c-2-1-4 0-6 1l-7 1-3-2c-2-1-4-5-5-8v-7c0-7 3-12 7-14 3-2 11-4 16-4 3 0 4 1 5 4 2 3 2 5 0 6-1 1-2 2-5 2l-7 2h1l3 1h-6l2-2c1-1 3-2 9-2 3-1 4-2 4-4l-1-3-2-1-2-2c-3 0-13 2-16 4-2 0-4 3-5 4-2 4-3 11-2 14 2 6 6 10 10 10h3l4-1h5l2-4h-1l-5-4c-2-2-2-4-1-5s2 0 1 1l1 4 4 3 2-1c2-3 7-7 11-8 5-1 9 0 12 4l4 6v1l1 1v2l-1-2c-2-5-4-8-8-10l-5-1c-3 0-6 2-10 5-4 4-6 8-6 14l1 3c0 1 1 1 1-1l4-4 2-1 3-4h5c3 1 2 4 0 6-3 2-6 3-8 1l-1-1-1 1c-2 1-2 4-2 6 0 3 1 5 5 6 5 3 12 2 16-2l3-6-1-5c-1-4-4-6-7-6-1 0-1 0 0 0 1-1 4 0 6 1 2 2 3 6 3 9v1l1 2 1 2 10 2c6 0 5 1-1 1l-9-1v1l-2 7-5 4-2 2v5c-1 6 0 11 2 18l1 4-4 1-5 2c-3 2-4 3-5 1zm-20-3c5-3 9-3 16-4h3V70l-2 2-4 3-3 1v1l-1 2-1 2-1 1h-1l-3 1h-2l-1 3-2 4v1l2-1zm48 1-11-3-1-1c1-1 9 2 13 4 3 2 2 2-1 0zm6-4c0-1 0-1 0 0zm-1-3-1-7v-4l-2-1-3-2v-3l2-1h1-2l3-1 8 2c1 1 0 1-2 1l-4-1h-1l1 1c2-1 2 0 1 2v9c0 8 0 9-1 5zM22 66l-1-2c-1-2 0-6 1-9 1-2 2-2 3-1v1h-1l-1 2a24 24 0 0 0-1 9zm58 0h2-2zm16-1v-1 1zM6 64c-2 0-5-3-6-4 0-2 0-3 4-5l6-2c3-1 12 1 12 2h-1l-11-1-8 4c-1 1 2 4 6 6l2 1-4-1zm8 1h1-1c-1 0-1 0 0 0zm84-10-1-6v-2c2 0 2 3 2 8-1 6-1 6-1 0zm3 3c-2 0-1-1 1-1a58 58 0 0 0 16-2c3-1 4-3 4-4l-4-4a38 38 0 0 0-19 0l-1-1 11-1c7 0 11 1 13 4 1 2 1 3-1 5l-7 3c-6 2-11 2-13 1zm-41-8v-1c2 0 6-3 7-6l-2-3v-1c3 1 4 4 2 6-2 4-6 6-7 5zm31-2 2-1-1 1h-1zM48 34v-1l2 1h-2zm42-1c-4-2-6-3-6-5s1-2 1 0l6 4h5l7-1 8-2c3-1 4-2 6-7l2-4c0-4-1-6-3-9-1-2-3-3-5-3h-5c1-1 5-2 7-1 4 1 7 9 6 14s-4 9-9 12l-6 1-14 1zm-27-3c-1-1 0-2 1-2v2h-1zm12 0-1-1h1l4-1 3-2-1 1c-1 2-5 3-6 3zm-4-7v-2h1l4-3 5-7-2 5c-3 5-5 7-7 7h-1zm14-4c-1-1-2-2-2-5l2-5v3c-1 4 0 7 2 6l2-5c1-5 3-8 7-10l4-1 3 1c2 2 2 5 2 7l-1 1v-1l-2-6c-1-1-5-1-8 2-2 2-3 4-4 9-1 4-4 6-5 4z"/><path fill="#cf031b" d="M70 149c-3-2-7-7-7-10 0-1 0-2 3-4l2-2-1 2c-4 3-4 6 0 10 3 3 5 3 7 3 3 0 4 0 6-2h1l-4 3h-7zm-3-18v-13 14-1zm15 1-1-4-1-6v-9l3-7 3-8-2 8-3 8v12l1 6zm-51-11a17 17 0 0 1-13-20c1-2 3-4 6-5l5-1 7 1 4 1h-3c-2-1-7-2-10-1-2 0-4 2-6 4l-1 4c0 3 0 4 2 6 2 5 5 8 10 9 4 1 10-1 14-4 3-3 4-7 3-11l-7-6-1-1c2 0 5 2 8 5l1 1 1-1c5-4 11-4 11-1h-3l-5 1-4 2v2c2 5-1 9-6 12-4 3-9 4-13 3zm34-8-1-7v-8l1 2v6l1 9-1-2zM55 93l-1-16v-8l-1 2c-2 2-4 4-6 4l-4 3-5 4-2 1-1 3a20 20 0 0 1-2 5 1468 1468 0 0 0 15-4l3-1-5 2a67 67 0 0 0-16 6l1-1 2-6 1-4h-3c-8 1-14-1-18-4-1-2-1-3 1-3 2 1 4 0 9-4 3-2 3-3 3-4l1-1v1l4 4 3-1 4-2h1l-1 1-2 2v1h-3v1h2c5 0 12-6 14-11l1-3-1-1c-3-1-5-4-6-9l-1-2-2 1c-4 3-7 4-10 4-2 1-2 0 1-1 5-1 11-5 12-7l1-2h1l-2-1v-8l-2-1c-2-1-4 0-6 1l-7 1-3-2c-2-1-4-5-5-8v-7c0-7 3-12 7-14 3-2 11-4 16-4 3 0 4 1 5 4 2 3 2 5 0 6-1 1-2 2-5 2l-7 2h1l3 1h-6l2-2c1-1 3-2 9-2 3-1 4-2 4-4l-1-3-2-1-2-2c-3 0-13 2-16 4-2 0-4 3-5 4-2 4-3 11-2 14 2 6 6 10 10 10h3l4-1h5l2-4h-1l-5-4c-2-2-2-4-1-5s2 0 1 1l1 4 4 3 2-1c2-3 7-7 11-8 5-1 9 0 12 4l4 6v1l1 1v2l-1-2c-2-5-4-8-8-10l-5-1c-3 0-6 2-10 5-4 4-6 8-6 14l1 3c0 1 1 1 1-1l4-4 2-1 3-4h5c3 1 2 4 0 6-3 2-6 3-8 1l-1-1-1 1c-2 1-2 4-2 6 0 3 1 5 5 6 5 3 12 2 16-2l3-6-1-5c-1-4-4-6-7-6-1 0-1 0 0 0 1-1 4 0 6 1 2 2 3 6 3 9v1l1 2 1 2 10 2c5 0 5 0-1 1l-9-1v2l-2 4-6 7-1 4c0 9 0 15 3 22v2l-4 1-5 2c-3 2-4 3-5 1zm7-10v-5h-2v1l1 1v2l-1 1h1v1l1-1zm-28-5-2 1h1l1-1zm-3 0 1-1-1 1h-2 2zm51 13-10-3c-1 0-2 0-1-1s8 1 11 3c2 1 2 2 0 1zm7-5-2-10 1-7c1-2 2-2 1 1v16zm4-18-9-2c-2 0-1-1 2-1 6 1 9 2 8 3h-1zm-72-4v-4c0-3 2-6 3-6v1l-2 8v3l-1-2zM6 64c-2 0-5-3-6-4 0-2 0-3 4-5l6-2c3-1 12 1 12 2h-1l-11-1-8 4c-1 1 2 4 6 6l2 1-4-1zm8 1h1-1c-1 0-1 0 0 0zm84-10-1-6v-2c2 0 2 3 2 8-1 6-1 6-1 0zm3 3c-2 0-1-1 1-1a58 58 0 0 0 16-2c3-1 4-3 4-4l-4-4a38 38 0 0 0-19 0l-1-1 11-1c7 0 11 1 13 4 1 2 1 3-1 5l-7 3c-6 2-11 2-13 1zm-41-8v-1c2 0 6-3 7-6l-2-3v-1c3 1 4 4 2 6-2 4-6 6-7 5zM48 34v-1l2 1h-2zm42-1c-4-2-6-3-6-5s1-2 1 0l6 4h5l7-1 8-2c3-1 4-2 6-7l2-4c0-4-1-6-3-9-1-2-3-3-5-3h-5c1-1 5-2 7-1 4 1 7 9 6 14s-4 9-9 12l-6 1-14 1zm-27-3c-1-1 0-2 1-2v2h-1zm12 0-1-1h1l4-1 3-2-1 1c-1 2-5 3-6 3zm-4-7v-2h1l4-3 5-7-2 5c-3 5-5 7-7 7h-1zm14-4c-1-1-2-2-2-5l2-5v3c-1 4 0 7 2 6l2-5c1-5 3-8 7-10l4-1 3 1c2 2 2 5 2 7l-1 1v-1l-2-6c-1-1-5-1-8 2-2 2-3 4-4 9-1 4-4 6-5 4z"/><path fill="#a10f1b" d="M70 149c-3-2-7-7-7-10 0-1 0-2 3-4l2-2-1 2c-4 3-4 6 0 10 3 3 5 3 7 3 3 0 4 0 6-2h1l-4 3h-7zm-3-18v-13 14-1zm15 1-1-4-1-6v-9l3-7 3-8-2 8-3 8v12l1 6zm-51-11a17 17 0 0 1-13-20c1-2 3-4 6-5l5-1 7 1 4 1h-3c-2-1-7-2-10-1-2 0-4 2-6 4l-1 4c0 3 0 4 2 6 2 5 5 8 10 9 4 1 10-1 14-4 3-3 4-7 3-11l-7-6-1-1c2 0 5 2 8 5l1 1 1-1c5-4 11-4 11-1h-3l-5 1-4 2v2c2 5-1 9-6 12-4 3-9 4-13 3zm34-8-1-7v-8l1 2v6l1 9-1-2zM55 93l-1-16v-8l-1 2c-2 2-4 4-6 4l-4 3-5 4-2 1-1 3a20 20 0 0 1-2 5 1468 1468 0 0 0 15-4l3-1-5 2a67 67 0 0 0-16 6l1-1 2-6 1-4h-3c-8 1-14-1-18-4-1-2-1-3 1-3 2 1 4 0 9-4 3-2 3-3 3-4l1-1v1l4 4 3-1 4-2h1l-1 1-2 2v1h-3v1h2c5 0 12-6 14-11l1-3-1-1c-3-1-5-4-6-9l-1-2-2 1c-4 3-7 4-10 4-2 1-2 0 1-1 5-1 11-5 12-7l1-2h1l-2-1v-8l-2-1c-2-1-4 0-6 1l-7 1-3-2c-2-1-4-5-5-8v-7c0-7 3-12 7-14 3-2 11-4 16-4 3 0 4 1 5 4 2 3 2 5 0 6-1 1-2 2-5 2l-7 2h1l3 1h-6l2-2c1-1 3-2 9-2 3-1 4-2 4-4l-1-3-2-1-2-2c-3 0-13 2-16 4-2 0-4 3-5 4-2 4-3 11-2 14 2 6 6 10 10 10h3l4-1h5l2-4h-1l-5-4c-2-2-2-4-1-5s2 0 1 1l1 4 4 3 2-1c2-3 7-7 11-8 5-1 9 0 12 4l4 6v1l1 1v2l-1-2c-2-5-4-8-8-10l-5-1c-3 0-6 2-10 5-4 4-6 8-6 14l1 3c0 1 1 1 1-1l4-4 2-1 3-4h5c3 1 2 4 0 6-3 2-6 3-8 1l-1-1-1 1c-2 1-2 4-2 6 0 3 1 5 5 6 5 3 12 2 16-2l3-6-1-5c-1-4-4-6-7-6-1 0-1 0 0 0 1-1 4 0 6 1 2 2 3 5 3 10 0 8-7 13-16 12l-3-1c-2 0-2 0 0 1l3 2c1 2 2 2 3 1l3-2 4 2c1 1 2 1 4-2s3-5 3-9v-3 2l11 3c5 0 5 0-1 1l-9-1v2l-2 4-6 7-1 4c0 9 0 15 3 22v2l-4 1-5 2c-3 2-4 3-5 1zm4-2 5-2 4-1-1-2c-2-7-3-13-3-20l1-4h-4l-1-1-1 2-1 2 1 1v12l1-1 1-1c1 0 3 2 2 3v1l1 2v2c1 1 0 1-1 1l-4 1-1 1v5s-1 0 0 0l1-1zm3-8v-5h-2v1l1 1v2l-1 1h1v1l1-1zm-30-1 2-2v-1 1h-7l1-3 1-1h4v1h3c1-1 1-1-1-1l-2-1h-2l-2-3-3-2-1 2-4 4-1 1h1l3 2h1v1l-1 1-1 1h9zm-15-3v-1h-2v1h2zm17-1-2 1h1l1-1zm-3 0 1-1-1 1h-2 2zm19-6 2-2 1-4 1-3-1-1h-2l-1 4-1 4-1 2-1 1h1l2-1zm8-10 1-2-1-1v1l-2 1v1l1 1 1-1zm-1-25 3-3c0-1-1-2-3-2s-3 1-4 3 1 3 4 2zm25 54-10-3c-1 0-2 0-1-1s8 1 11 3c2 1 2 2 0 1zm7-5-2-10 1-7c1-2 2-2 1 1v16zm4-18-9-2c-2 0-1-1 2-1 6 1 9 2 8 3h-1zm-72-4v-4c0-3 2-6 3-6v1l-2 8v3l-1-2zM6 64c-2 0-5-3-6-4 0-2 0-3 4-5l6-2c3-1 12 1 12 2h-1l-11-1-8 4c-1 1 2 4 6 6l2 1-4-1zm8 1h1-1c-1 0-1 0 0 0zm84-10-1-6v-2c2 0 2 3 2 8-1 6-1 6-1 0zm3 3c-2 0-1-1 1-1a58 58 0 0 0 16-2c3-1 4-3 4-4l-4-4a38 38 0 0 0-19 0l-1-1 11-1c7 0 11 1 13 4 1 2 1 3-1 5l-7 3c-6 2-11 2-13 1zm-41-8v-1c2 0 6-3 7-6l-2-3v-1c3 1 4 4 2 6-2 4-6 6-7 5zM48 34v-1l2 1h-2zm42-1c-4-2-6-3-6-5s1-2 1 0l6 4h5l7-1 8-2c3-1 4-2 6-7l2-4c0-4-1-6-3-9-1-2-3-3-5-3h-5c1-1 5-2 7-1 4 1 7 9 6 14s-4 9-9 12l-6 1-14 1zm-27-3c-1-1 0-2 1-2v2h-1zm12 0-1-1h1l4-1 3-2-1 1c-1 2-5 3-6 3zm-4-7v-2h1l4-3 5-7-2 5c-3 5-5 7-7 7h-1zm14-4c-1-1-2-2-2-5l2-5v3c-1 4 0 7 2 6l2-5c1-5 3-8 7-10l4-1 3 1c2 2 2 5 2 7l-1 1v-1l-2-6c-1-1-5-1-8 2-2 2-3 4-4 9-1 4-4 6-5 4z"/><path fill="#591c0e" d="M70 149c-3-2-7-7-7-10 0-1 0-2 3-4l2-2-1 2c-4 3-4 6 0 10 3 3 5 3 7 3 3 0 4 0 6-2h1l-4 3h-7zm-3-18v-13 14-1zm15 1-1-4-1-6v-9l3-7 3-8-2 8-3 8v12l1 6zm-51-11a17 17 0 0 1-13-20c1-2 3-4 6-5l5-1 7 1 4 1h-3c-2-1-7-2-10-1-2 0-4 2-6 4l-1 4c0 3 0 4 2 6 2 5 5 8 10 9 4 1 10-1 14-4 3-3 4-7 3-11l-7-6-1-1c2 0 5 2 8 5l1 1 1-1c5-4 11-4 11-1h-3l-5 1-4 2v2c2 5-1 9-6 12-4 3-9 4-13 3zm34-8-1-7v-8l1 2v6l1 9-1-2zM55 93l-1-16v-8l-1 2c-2 2-4 4-6 4l-4 3-5 4-2 1-1 3a20 20 0 0 1-2 5 1468 1468 0 0 0 15-4l3-1-5 2a67 67 0 0 0-16 6l1-1 2-6 1-4h-3c-8 1-14-1-18-4-1-2-1-3 1-3 2 1 4 0 9-4 3-2 3-3 3-4l1-1v1l4 4 3-1 4-2h1l-1 1-2 2v1h-3v1c1 1 4 0 6-1 5-2 9-6 10-10l1-3 1 1-1 4a25 25 0 0 1-3 8c0 1 3-1 6-5a81 81 0 0 1 6-8l1-1 1 1c0 1 3 1 5-1l6-6 2-6v-3l1 2 10 2c5 0 5 0-1 1l-9-1v2l-2 4-6 7-1 4c0 9 0 15 3 22v2l-4 1-5 2c-3 2-4 3-5 1zm9-4 4-1-1-3-2-11V62h-4l-1-1-2 3-2 3v9a224 224 0 0 0 1 16l2-1 5-2zm-5-4-1-1v-1l1-1v-2h-1l3-4c1 0 3 2 2 3v1l1 2v3h-5zm3-2v-5h-2v1l1 1v2l-1 1h1v1l1-1zm-28-1c4-2 10-6 12-11 2-4 2-5 0-2-3 4-7 7-10 7l-3-1-2-1-3-2-2-2-1 2c-3 3-6 6-9 6h-2l3 2 4 2h13zm-2-2h-4l-1-1v-1l2-2h4v1c1-1 2 0 2 1l-3 3v-1zm2-2-2 1h1l1-1zm-3 0 1-1-1 1h-2 2zm51 13-10-3c-1 0-2 0-1-1s8 1 11 3c2 1 2 2 0 1zm7-5-2-10 1-7c1-2 2-2 1 1v16zm4-18-9-2c-2 0-1-1 2-1 6 1 9 2 8 3h-1zm-72-4v-4c0-3 2-6 3-6v1l-2 8v3l-1-2zM6 64c-2 0-5-3-6-4 0-2 0-3 4-5l6-2c3-1 12 1 12 2h-1l-11-1-8 4c-1 1 2 4 6 6l2 1-4-1zm8 1h1-1c-1 0-1 0 0 0zm84-10-1-6v-2c2 0 2 3 2 8-1 6-1 6-1 0zm-48 4c-4-1-6-4-7-9l-1-2-2 1c-4 3-7 4-10 4-2 1-2 0 1-1 5-1 11-5 12-7l1-2h1l-2-1v-8l-2-1c-2-1-4 0-6 1l-7 1-3-2c-2-1-4-5-5-8v-7c0-7 3-12 7-14 5-3 16-5 19-3l3 7c0 2-3 4-6 4l-6 2h-2 2c2 1 3 1 2 2h-2l-3-1c0-2 4-4 7-4 7-1 8-1 8-4l-3-5-3-1c-4 0-12 2-15 4-4 2-6 6-7 13l1 6c1 3 1 5 3 7l6 2h3c2-2 5-2 7-1h2l1-2 1-2h-1c-3-1-6-4-6-6v-2l1-1 1 5 4 3 2-1 2-2c6-6 13-8 18-5 3 1 7 6 7 9a265 265 0 0 0 0 2c-2-5-4-8-8-10l-5-1c-3 0-6 2-10 5-4 4-6 8-6 14l1 3c0 1 1 1 1-1l4-4 2-1 3-4h5c3 1 2 4 0 6-3 2-6 3-8 1l-1-1-1 1c-2 1-2 4-2 6 0 3 1 5 5 6 5 3 12 2 16-2l3-6-1-5c-1-4-4-6-7-6-1 0-1 0 0 0 1-1 4 0 6 1 3 2 4 10 2 14-1 3-4 5-6 7l-5 1c-9 0-14-3-15-9l-1-1v6c1 6 4 8 9 8h5c2-1 2 0-1 1h-8zm8-22c2-2 3-3 2-4l-4-1c-2 0-2 0-3 2-2 3 1 5 5 3zm43 21c-2 0-1-1 1-1a58 58 0 0 0 16-2c3-1 4-3 4-4l-4-4a38 38 0 0 0-19 0l-1-1 11-1c7 0 11 1 13 4 1 2 1 3-1 5l-7 3c-6 2-11 2-13 1zm-41-8v-1c2 0 6-3 7-6l-2-3v-1c3 1 4 4 2 6-2 4-6 6-7 5zM48 34v-1l2 1h-2zm42-1c-4-2-6-3-6-5s1-2 1 0l6 4h5l7-1 9-2c2-1 3-3 5-7 2-2 2-3 2-6l-4-9c-2-2-3-2-6-1l-3 1 3-2c3-1 5-1 7 2s4 8 3 12c-1 5-4 9-9 12l-6 1-14 1zm-27-3c-1-1 0-2 1-2v2h-1zm12 0-1-1h1l4-1 2-1c-1 2-5 3-6 3zm-4-7v-2h1l4-3c1-3 5-7 5-6a65 65 0 0 1-7 10l-3 1zm14-4c-2-1-2-2-2-5l2-5v3c-1 4 0 7 2 6l2-5c1-5 3-8 7-10l4-1 3 1 2 3v4c-1 1-1 1-1-1l-2-5c-2-2-8 1-10 5l-2 5-1 4c-1 2-3 2-4 1z"/><path fill="#0b0a06" d="M71 149c-3-1-8-7-8-9l3-6c2-1 2 0 0 1-3 3-3 6 1 10s7 4 11 2h2l-1 1c-2 1-5 2-8 1zm-4-25v-2 4-2zm13-3v-7l3-8c1-6 2-8 3-7l-4 13c-2 5-2 6-1 9v3l-1-3zm-49 0c-3-1-6-2-8-5-4-4-6-12-4-16 1-2 3-4 6-5h8c1 0 1 1 0 0l-8 2c-2 1-4 2-4 4-2 3 0 11 5 15l7 3c5 0 10-2 14-5 4-5 4-9-1-14l-1-1 3 3 1 2 2-2 7-3 3 1c2 1 2 2 0 1l-2-1-4 2-5 2v4c1 3 0 5-2 7-5 5-12 7-17 6zm36-3v1-1zm-2-5-2-14 1-1 1 2v5l1 9-1-1zm-9-19-1-3-1-20v-2l-1 2c-2 2-4 4-6 4l-4 3-5 4-2 1-1 3a20 20 0 0 1-2 5 1468 1468 0 0 0 9-4h8-1a76 76 0 0 0-19 7v-1l2-1 2-7v-2h-5c-6 0-8 0-12-2l-5-4 2-1c2 1 4 0 7-3l4-2 1-1-1 1-6 6-3 1h-2l2 2c4 2 7 2 12 2 7 0 10-1 15-6l5-10 2-6-2 12-1 2 1-1 4-4 7-7a194 194 0 0 0-3 5v5l1 21 2-1 5-2 4-1-1-3-2-7V62l1-1-2 1c-3 0-5-1-4-2h1c2 2 5 0 9-3l2-4a16 16 0 0 0 2-8c0-1 0-1 0 0l1 1 10 2c5 0 5 0-1 1l-9-1v2l-2 4-6 7-1 4c0 9 0 14 3 22 0 2 0 2-4 3l-6 2-3 2zm26-3-10-3-1-1c1-1 8 2 11 3 2 1 2 2 0 1zm7-5-2-10 1-7c0-1 1-2 2-1l-1 2v16zm-31-1 1-1-1-1 1-1 1-1-1-1-1-1 2-2 1-1 1 1 1 2v2l1 1v1c1 2 0 2-3 2h-3zm4-1v-6h-2v1l1 1v2l-1 1h1v1h1zm-35-4 1-2 1-2h3l1 1h2l-1 2-2 1h-5zm7-2-2 1h1l1-1zm-4 0 2-1-1 1h-2v1l1-1zm2-3c-3-2-6-5-6-7l1-1v1l4 4 3-1 4-2h1l-1 1-2 2v1h-3l-1 1h7l6-5 2-1-7 7-4 1-4-1zm61-7-9-2c-2 0-1-1 2-1 6 1 9 2 8 3h-1zm-72-4c-1-3 1-10 3-10l-1 2-1 6v3l-1-1zM7 64c-3 0-4-1-5-3-3-2-2-4 1-6l8-2 10 2-2-1H9l-7 5 1 2 6 3 1 1H9l-2-1zm43-5c-4-1-6-4-7-9l-1-2h-1l-1 1-2 1c-3 2-5 3-8 3l2-1c4-1 10-5 11-7l1-2v-1l-1-1v-7l-1-1-7 1h-7c-2-1-3-1-5-4l-3-5v-7c0-7 3-12 6-14 4-2 13-4 18-4l3 2 1 2-1-1c-1-2-3-2-5-2-6 1-11 2-14 4-4 1-7 7-7 13l1 7c2 7 7 10 12 8 2-2 5-2 7-1h3l1-2v-3h-1l-4-2c-2-2-3-4-2-5h1v3c1 2 3 4 5 4l2-1c2-3 7-7 11-8 7-2 13 1 15 9l-1-1-6-6-5-1c-2 0-3 0-5 2-4 1-8 5-9 8-3 5-3 12-1 13h1l3-5 2-1 1-1c0-2 2-3 3-4 3-2 7 0 7 2 0 3-5 7-8 6l-2-2c0-2-2 0-3 3-2 3-2 6 0 8 3 3 7 4 11 4s9-2 11-6l1-5-1-5c-1-2-3-4-5-4l-1-1h2c4 0 6 4 6 11-1 7-5 11-12 12-8 0-14-3-15-9l-1-2c-1 0 0 0 0 0l-1 2v3l3 7 3 3h9l-2 1h-7zm7-22c3-1 4-3 3-4s-4-2-6-1c-1 1-2 4-1 5h4zm44 21h-1l4-1a147 147 0 0 0 10 0l-3 1h-10zm-3-4a20 20 0 0 0-1-7l1 1 1 9-1-3zm20 1 4-3c0-1 0-1 0 0s-4 4-6 4l2-1zm4-5-6-4a42 42 0 0 0-18 1c0-1 4-2 10-2 7 0 12 1 14 4v1zm-62 0 1-1 5-3v-5c-1-2-1-2 1-1l1 3-4 5c-1 2-2 2-3 2h-1zM48 34l1-1v2l-1-1zm42-1c-3-1-6-3-6-5l1 1c1 1 4 3 7 3h9l6-1 3-1c4-2 7-6 9-11 0-1 0-1 0 0 0 3-3 8-6 10-4 3-6 3-10 3l-13 1zm-27-4v-1h1v2l-1-1zm12 1c-1-1-1-1 1-1l3-1 2-1c1 0 1 0 0 0-1 2-5 3-6 3zm-4-8v-1h1l4-3c3-6 5-6 2-1s-6 7-7 5zm13-4-1-3 2-6v3c-1 4 0 7 1 6 1 0 2-1 3-5l1-5 6-5c5-2 9 0 9 5l-1 1-2-5h-5c-5 3-6 5-8 12 0 2-2 3-3 3l-2-1zm35-3-5-9h-5l-2 1c-1 0 0-2 2-2h6c2 2 4 8 4 11v-1zm-84 0c-1 0-1-1 1-2l7-2c3 0 5-1 5-2h1l-1 1c-1 1-2 2-7 2l-4 1-2 1 2 1h2-4zm14-7V7v1z"/></g></svg>